<svg width="20.000000" height="20.000000" viewBox="0 0 20 20" fill="none" xmlns="http://www.w3.org/2000/svg" xmlns:xlink="http://www.w3.org/1999/xlink">
	<desc>
			Created with Pixso.
	</desc>
	<defs>
		<clipPath id="clip31_2514">
			<rect id="eye-off" width="20.000000" height="20.000000" fill="white" fill-opacity="0"/>
		</clipPath>
	</defs>
	<rect id="eye-off" width="20.000000" height="20.000000" fill="#FFFFFF" fill-opacity="0"/>
	<g clip-path="url(#clip31_2514)">
		<path id="Vector" d="M14.95 14.95C13.5255 16.0358 11.7909 16.6373 10 16.6666C4.16663 16.6666 0.833313 10 0.833313 10C1.86987 8.06824 3.30762 6.38049 5.04999 5.04993M8.25 3.53333C8.82361 3.39905 9.41089 3.33191 10 3.33325C15.8333 3.33325 19.1666 10 19.1666 10C18.6608 10.9463 18.0576 11.8372 17.3666 12.6583M11.7667 11.7666C11.5378 12.0122 11.2618 12.2092 10.9551 12.3458C10.6484 12.4825 10.3174 12.556 9.98175 12.5619C9.64606 12.5679 9.31262 12.5061 9.00134 12.3804C8.69 12.2546 8.40723 12.0675 8.16986 11.8301C7.93243 11.5927 7.7453 11.3099 7.61957 10.9987C7.49384 10.6873 7.43207 10.3539 7.43799 10.0182C7.44391 9.6825 7.5174 9.35144 7.65405 9.0448C7.79071 8.73816 7.98767 8.46216 8.23334 8.23328" stroke="#11101C" stroke-opacity="1.000000" stroke-width="2.000000" stroke-linejoin="round"/>
		<path id="Vector" d="M0.833313 0.833374L19.1666 19.1667" stroke="#11101C" stroke-opacity="1.000000" stroke-width="2.000000" stroke-linejoin="round" stroke-linecap="round"/>
	</g>
</svg>
