<svg width="24.000000" height="24.000000" viewBox="0 0 24 24" fill="none" xmlns="http://www.w3.org/2000/svg" xmlns:xlink="http://www.w3.org/1999/xlink">
	<desc>
			Created with Pixso.
	</desc>
	<defs>
		<clipPath id="clip31_1414">
			<rect id="mdi:user" width="24.000000" height="24.000000" fill="white" fill-opacity="0"/>
		</clipPath>
	</defs>
	<rect id="mdi:user" width="24.000000" height="24.000000" fill="#FFFFFF" fill-opacity="0"/>
	<g clip-path="url(#clip31_1414)">
		<path id="Vector" d="M12 4C13.0605 4 14.0781 4.42139 14.8281 5.17163C15.5781 5.92175 16 6.93909 16 8C16 9.06091 15.5781 10.0782 14.8281 10.8284C14.0781 11.5786 13.0605 12 12 12C10.9395 12 9.92188 11.5786 9.17188 10.8284C8.42188 10.0782 8 9.06091 8 8C8 6.93909 8.42188 5.92175 9.17188 5.17163C9.92188 4.42139 10.9395 4 12 4ZM12 14C16.4199 14 20 15.79 20 18L20 20L4 20L4 18C4 15.79 7.58008 14 12 14Z" fill="#0957C3" fill-opacity="1.000000" fill-rule="nonzero"/>
	</g>
</svg>
